<mxfile host="65bd71144e">
    <diagram id="3HaguOHTYF4JA-uTboLR" name="Page-1">
        <mxGraphModel dx="2637" dy="2269" grid="1" gridSize="10" guides="1" tooltips="1" connect="1" arrows="1" fold="1" page="1" pageScale="1" pageWidth="827" pageHeight="1169" math="0" shadow="0">
            <root>
                <mxCell id="0"/>
                <mxCell id="1" parent="0"/>
                <mxCell id="2" value="Conventions" style="swimlane;fontStyle=1;align=center;verticalAlign=top;childLayout=stackLayout;horizontal=1;startSize=26;horizontalStack=0;resizeParent=1;resizeParentMax=0;resizeLast=0;collapsible=1;marginBottom=0;" parent="1" vertex="1">
                    <mxGeometry x="340" y="-160" width="190" height="160" as="geometry"/>
                </mxCell>
                <mxCell id="5" value="+ generar_num_linea: caracter&#10;ASCII&#10;+ generar_num_columna: str()&#10;+ generar_nombre_casilla: concat" style="text;strokeColor=none;fillColor=none;align=left;verticalAlign=top;spacingLeft=4;spacingRight=4;overflow=hidden;rotatable=0;points=[[0,0.5],[1,0.5]];portConstraint=eastwest;" parent="2" vertex="1">
                    <mxGeometry y="26" width="190" height="72" as="geometry"/>
                </mxCell>
                <mxCell id="4" value="" style="line;strokeWidth=1;fillColor=none;align=left;verticalAlign=middle;spacingTop=-1;spacingLeft=3;spacingRight=3;rotatable=0;labelPosition=right;points=[];portConstraint=eastwest;strokeColor=inherit;" parent="2" vertex="1">
                    <mxGeometry y="98" width="190" height="8" as="geometry"/>
                </mxCell>
                <mxCell id="3" value="+ tablero_num_lineas&#10;+ tablero_num_columnas&#10;+ barcos_longitud" style="text;strokeColor=none;fillColor=none;align=left;verticalAlign=top;spacingLeft=4;spacingRight=4;overflow=hidden;rotatable=0;points=[[0,0.5],[1,0.5]];portConstraint=eastwest;" parent="2" vertex="1">
                    <mxGeometry y="106" width="190" height="54" as="geometry"/>
                </mxCell>
                <mxCell id="6" value="Case" style="swimlane;fontStyle=1;align=center;verticalAlign=top;childLayout=stackLayout;horizontal=1;startSize=26;horizontalStack=0;resizeParent=1;resizeParentMax=0;resizeLast=0;collapsible=1;marginBottom=0;" parent="1" vertex="1">
                    <mxGeometry x="10" y="70" width="190" height="200" as="geometry"/>
                </mxCell>
                <mxCell id="7" value="+ instances: diccionario&#10;+ jugadas&#10;+ x: int()&#10;+ y: int()" style="text;strokeColor=none;fillColor=none;align=left;verticalAlign=top;spacingLeft=4;spacingRight=4;overflow=hidden;rotatable=0;points=[[0,0.5],[1,0.5]];portConstraint=eastwest;" parent="6" vertex="1">
                    <mxGeometry y="26" width="190" height="74" as="geometry"/>
                </mxCell>
                <mxCell id="8" value="" style="line;strokeWidth=1;fillColor=none;align=left;verticalAlign=middle;spacingTop=-1;spacingLeft=3;spacingRight=3;rotatable=0;labelPosition=right;points=[];portConstraint=eastwest;strokeColor=inherit;" parent="6" vertex="1">
                    <mxGeometry y="100" width="190" height="8" as="geometry"/>
                </mxCell>
                <mxCell id="9" value="+ generar_nombre_casilla(): self&#10;+ _generar_nombre(): self&#10;+ jugar(): self&#10;+ generar_casillas():&#10;+ __str__(): selfÂ " style="text;strokeColor=none;fillColor=none;align=left;verticalAlign=top;spacingLeft=4;spacingRight=4;overflow=hidden;rotatable=0;points=[[0,0.5],[1,0.5]];portConstraint=eastwest;" parent="6" vertex="1">
                    <mxGeometry y="108" width="190" height="92" as="geometry"/>
                </mxCell>
                <mxCell id="10" value="Barco" style="swimlane;fontStyle=1;align=center;verticalAlign=top;childLayout=stackLayout;horizontal=1;startSize=26;horizontalStack=0;resizeParent=1;resizeParentMax=0;resizeLast=0;collapsible=1;marginBottom=0;" parent="1" vertex="1">
                    <mxGeometry x="660" y="80" width="190" height="200" as="geometry"/>
                </mxCell>
                <mxCell id="13" value="+ __init__()&#10;+ horizontal()&#10;+ instanciar()&#10;+ generar_barcos()" style="text;strokeColor=none;fillColor=none;align=left;verticalAlign=top;spacingLeft=4;spacingRight=4;overflow=hidden;rotatable=0;points=[[0,0.5],[1,0.5]];portConstraint=eastwest;" parent="10" vertex="1">
                    <mxGeometry y="26" width="190" height="72" as="geometry"/>
                </mxCell>
                <mxCell id="12" value="" style="line;strokeWidth=1;fillColor=none;align=left;verticalAlign=middle;spacingTop=-1;spacingLeft=3;spacingRight=3;rotatable=0;labelPosition=right;points=[];portConstraint=eastwest;strokeColor=inherit;" parent="10" vertex="1">
                    <mxGeometry y="98" width="190" height="8" as="geometry"/>
                </mxCell>
                <mxCell id="11" value="+ instancias: []&#10;+ casillas_ocupadas: set()&#10;+ num_lineas: CONVENTIONS&#10;+ num_columnas: CONVENTIONS&#10;+ num2l: CONVENTIONS&#10;+ num2c: CONVENTIONS" style="text;strokeColor=none;fillColor=none;align=left;verticalAlign=top;spacingLeft=4;spacingRight=4;overflow=hidden;rotatable=0;points=[[0,0.5],[1,0.5]];portConstraint=eastwest;" parent="10" vertex="1">
                    <mxGeometry y="106" width="190" height="94" as="geometry"/>
                </mxCell>
                <mxCell id="14" value="Tablero" style="swimlane;fontStyle=1;align=center;verticalAlign=top;childLayout=stackLayout;horizontal=1;startSize=26;horizontalStack=0;resizeParent=1;resizeParentMax=0;resizeLast=0;collapsible=1;marginBottom=0;" parent="1" vertex="1">
                    <mxGeometry x="340" y="120" width="200" height="140" as="geometry"/>
                </mxCell>
                <mxCell id="15" value="+ num_lineas: CONVENTIONS&#10;+ num_columnas: CONVENTIONS&#10;+ num2l: CONVENTIONS&#10;+ num2c: CONVENTIONS" style="text;strokeColor=none;fillColor=none;align=left;verticalAlign=top;spacingLeft=4;spacingRight=4;overflow=hidden;rotatable=0;points=[[0,0.5],[1,0.5]];portConstraint=eastwest;" parent="14" vertex="1">
                    <mxGeometry y="26" width="200" height="64" as="geometry"/>
                </mxCell>
                <mxCell id="16" value="" style="line;strokeWidth=1;fillColor=none;align=left;verticalAlign=middle;spacingTop=-1;spacingLeft=3;spacingRight=3;rotatable=0;labelPosition=right;points=[];portConstraint=eastwest;strokeColor=inherit;" parent="14" vertex="1">
                    <mxGeometry y="90" width="200" height="8" as="geometry"/>
                </mxCell>
                <mxCell id="17" value="+ __init__()&#10;+ ver():" style="text;strokeColor=none;fillColor=none;align=left;verticalAlign=top;spacingLeft=4;spacingRight=4;overflow=hidden;rotatable=0;points=[[0,0.5],[1,0.5]];portConstraint=eastwest;" parent="14" vertex="1">
                    <mxGeometry y="98" width="200" height="42" as="geometry"/>
                </mxCell>
                <mxCell id="41" value="" style="endArrow=open;endFill=1;endSize=12;html=1;exitX=0;exitY=0.5;exitDx=0;exitDy=0;entryX=0;entryY=0.5;entryDx=0;entryDy=0;" edge="1" parent="14" source="17" target="17">
                    <mxGeometry width="160" relative="1" as="geometry">
                        <mxPoint x="-139" y="80" as="sourcePoint"/>
                        <mxPoint x="-10" y="117" as="targetPoint"/>
                        <Array as="points">
                            <mxPoint x="-140" y="119"/>
                        </Array>
                    </mxGeometry>
                </mxCell>
                <mxCell id="24" value="" style="endArrow=diamondThin;endFill=0;endSize=24;html=1;exitX=0.525;exitY=1.07;exitDx=0;exitDy=0;exitPerimeter=0;entryX=0.476;entryY=0;entryDx=0;entryDy=0;entryPerimeter=0;" edge="1" parent="1" source="3" target="6">
                    <mxGeometry width="160" relative="1" as="geometry">
                        <mxPoint x="200" y="70" as="sourcePoint"/>
                        <mxPoint x="360" y="70" as="targetPoint"/>
                        <Array as="points">
                            <mxPoint x="440" y="30"/>
                            <mxPoint x="100" y="30"/>
                        </Array>
                    </mxGeometry>
                </mxCell>
                <mxCell id="25" value="" style="endArrow=diamondThin;endFill=0;endSize=24;html=1;exitX=0.525;exitY=1.039;exitDx=0;exitDy=0;exitPerimeter=0;entryX=0.5;entryY=0;entryDx=0;entryDy=0;" edge="1" parent="1" source="3" target="14">
                    <mxGeometry width="160" relative="1" as="geometry">
                        <mxPoint x="449.75" y="13.779999999999973" as="sourcePoint"/>
                        <mxPoint x="115" y="80" as="targetPoint"/>
                        <Array as="points">
                            <mxPoint x="440" y="20"/>
                            <mxPoint x="440" y="40"/>
                        </Array>
                    </mxGeometry>
                </mxCell>
                <mxCell id="26" value="" style="endArrow=diamondThin;endFill=0;endSize=24;html=1;exitX=0.523;exitY=1.059;exitDx=0;exitDy=0;exitPerimeter=0;entryX=0.5;entryY=0;entryDx=0;entryDy=0;" edge="1" parent="1" source="3" target="10">
                    <mxGeometry width="160" relative="1" as="geometry">
                        <mxPoint x="449.75" y="12.105999999999995" as="sourcePoint"/>
                        <mxPoint x="450" y="80.00000000000023" as="targetPoint"/>
                        <Array as="points">
                            <mxPoint x="440" y="30"/>
                            <mxPoint x="760" y="30"/>
                        </Array>
                    </mxGeometry>
                </mxCell>
                <mxCell id="27" value="Juego" style="swimlane;fontStyle=1;align=center;verticalAlign=top;childLayout=stackLayout;horizontal=1;startSize=26;horizontalStack=0;resizeParent=1;resizeParentMax=0;resizeLast=0;collapsible=1;marginBottom=0;" vertex="1" parent="1">
                    <mxGeometry x="355" y="430" width="160" height="226" as="geometry"/>
                </mxCell>
                <mxCell id="34" value="&amp;nbsp;+ CASO_NO_JUGADO:&lt;br&gt;+ CASO_TOCADO&lt;br&gt;+ CASO_AGUA&lt;br&gt;+ HORIZONTAL: int()&lt;br&gt;+ VERTICAL: int()&lt;br&gt;+ ORIENTACIONES" style="text;html=1;align=left;verticalAlign=middle;resizable=0;points=[];autosize=1;strokeColor=none;fillColor=none;" vertex="1" parent="27">
                    <mxGeometry y="26" width="160" height="100" as="geometry"/>
                </mxCell>
                <mxCell id="29" value="" style="line;strokeWidth=1;fillColor=none;align=left;verticalAlign=middle;spacingTop=-1;spacingLeft=3;spacingRight=3;rotatable=0;labelPosition=right;points=[];portConstraint=eastwest;strokeColor=inherit;" vertex="1" parent="27">
                    <mxGeometry y="126" width="160" height="4" as="geometry"/>
                </mxCell>
                <mxCell id="30" value="+ probar_fin_juego():&#10;+ jugar_tirada():&#10;+ jugar_una_partida():&#10;+ elegir_jugar0tra():&#10;+ jugar():&#10;" style="text;strokeColor=none;fillColor=none;align=left;verticalAlign=top;spacingLeft=4;spacingRight=4;overflow=hidden;rotatable=0;points=[[0,0.5],[1,0.5]];portConstraint=eastwest;" vertex="1" parent="27">
                    <mxGeometry y="130" width="160" height="96" as="geometry"/>
                </mxCell>
                <mxCell id="32" value="" style="endArrow=block;startArrow=block;endFill=1;startFill=1;html=1;" edge="1" parent="1">
                    <mxGeometry width="160" relative="1" as="geometry">
                        <mxPoint x="540" y="240" as="sourcePoint"/>
                        <mxPoint x="660" y="240" as="targetPoint"/>
                    </mxGeometry>
                </mxCell>
                <mxCell id="36" value="" style="endArrow=open;endFill=1;endSize=12;html=1;" edge="1" parent="1">
                    <mxGeometry width="160" relative="1" as="geometry">
                        <mxPoint x="440" y="210" as="sourcePoint"/>
                        <mxPoint x="440" y="430" as="targetPoint"/>
                    </mxGeometry>
                </mxCell>
                <mxCell id="46" value="" style="endArrow=open;endFill=1;endSize=12;html=1;entryX=0.852;entryY=-0.004;entryDx=0;entryDy=0;entryPerimeter=0;exitX=0;exitY=0.5;exitDx=0;exitDy=0;" edge="1" parent="1" source="9" target="10">
                    <mxGeometry width="160" relative="1" as="geometry">
                        <mxPoint x="380" y="250" as="sourcePoint"/>
                        <mxPoint x="540" y="250" as="targetPoint"/>
                        <Array as="points">
                            <mxPoint x="-40" y="224"/>
                            <mxPoint x="-40" y="-190"/>
                            <mxPoint x="822" y="-190"/>
                        </Array>
                    </mxGeometry>
                </mxCell>
                <mxCell id="47" value="" style="endArrow=block;startArrow=block;endFill=1;startFill=1;html=1;exitX=1.011;exitY=0.467;exitDx=0;exitDy=0;exitPerimeter=0;entryX=0.632;entryY=1.04;entryDx=0;entryDy=0;entryPerimeter=0;" edge="1" parent="1" source="34" target="11">
                    <mxGeometry width="160" relative="1" as="geometry">
                        <mxPoint x="400" y="220" as="sourcePoint"/>
                        <mxPoint x="560" y="220" as="targetPoint"/>
                        <Array as="points">
                            <mxPoint x="780" y="503"/>
                        </Array>
                    </mxGeometry>
                </mxCell>
                <mxCell id="51" value="" style="endArrow=block;startArrow=block;endFill=1;startFill=1;html=1;exitX=-0.014;exitY=0.46;exitDx=0;exitDy=0;exitPerimeter=0;entryX=0.415;entryY=1.074;entryDx=0;entryDy=0;entryPerimeter=0;" edge="1" parent="1" source="34" target="9">
                    <mxGeometry width="160" relative="1" as="geometry">
                        <mxPoint x="526.7599999999998" y="512.6999999999998" as="sourcePoint"/>
                        <mxPoint x="790.0799999999999" y="293.76" as="targetPoint"/>
                        <Array as="points">
                            <mxPoint x="89" y="502"/>
                        </Array>
                    </mxGeometry>
                </mxCell>
            </root>
        </mxGraphModel>
    </diagram>
</mxfile>
